<?xml version="1.0" encoding="UTF-8"?>
<svg xmlns="http://www.w3.org/2000/svg" xmlns:xlink="http://www.w3.org/1999/xlink" width="30px" height="30px" viewBox="0 0 30 30" version="1.1">
<g id="surface1">
<path style=" stroke:none;fill-rule:nonzero;fill:rgb(0%,0%,0%);fill-opacity:1;" d="M 15 0 C 6.726562 0 0 6.730469 0 15 C 0 23.269531 6.726562 30 15 30 C 23.269531 30 30 23.269531 30 15 C 30 6.730469 23.269531 0 15 0 Z M 15 28.03125 C 7.8125 28.03125 1.96875 22.1875 1.96875 15 C 1.96875 7.8125 7.8125 1.96875 15 1.96875 C 22.1875 1.96875 28.03125 7.8125 28.03125 15 C 28.03125 22.1875 22.1875 28.03125 15 28.03125 Z M 15 28.03125 "/>
<path style=" stroke:none;fill-rule:nonzero;fill:rgb(0%,0%,0%);fill-opacity:1;" d="M 20.429688 10.089844 L 12.695312 17.824219 L 9.570312 14.699219 C 9.183594 14.3125 8.5625 14.3125 8.179688 14.699219 C 7.792969 15.082031 7.792969 15.703125 8.179688 16.089844 L 12 19.910156 C 12.191406 20.101562 12.445312 20.199219 12.695312 20.199219 C 12.945312 20.199219 13.199219 20.101562 13.390625 19.910156 C 13.390625 19.910156 13.394531 19.910156 13.394531 19.90625 L 21.820312 11.480469 C 22.207031 11.097656 22.207031 10.472656 21.820312 10.089844 C 21.4375 9.707031 20.8125 9.707031 20.429688 10.089844 Z M 20.429688 10.089844 "/>
</g>
</svg>
